Coordinates
version=1
nRows=16
nColumns=36
inDegrees=yes

Units are S.I. units (second, meters, Newtons, ...)
If the header above contains a line with 'inDegrees', this indicates whether rotational values are in degrees (yes) or radians (no).

endheader
time	pelvis_tilt	pelvis_list	pelvis_rotation	pelvis_tx	pelvis_ty	pelvis_tz	hip_flexion_r	hip_adduction_r	hip_rotation_r	knee_angle_r	knee_angle_r_beta	ankle_angle_r	subtalar_angle_r	mtp_angle_r	hip_flexion_l	hip_adduction_l	hip_rotation_l	knee_angle_l	knee_angle_l_beta	ankle_angle_l	subtalar_angle_l	mtp_angle_l	lumbar_extension	lumbar_bending	lumbar_rotation	arm_flex_r	arm_add_r	arm_rot_r	elbow_flex_r	pro_sup_r	arm_flex_l	arm_add_l	arm_rot_l	elbow_flex_l	pro_sup_l
      2.95000000	     -0.97267465	      1.92155757	      4.28420493	     -0.15895875	      0.91119750	      0.12539681	      4.51912124	     -6.27106860	     -4.49711787	      3.36654938	      0.05875737	      3.76465804	     -6.75883696	     -7.49999987	      4.29695779	     -5.36989381	      0.20400504	      1.94153690	      0.03388621	      5.33489268	     -0.33334408	     -7.49999987	      2.85315942	      1.08062101	      8.41747705	     68.60975763	     15.15419147	     62.01779866	    148.18816754	    106.81093315	     84.74505611	     20.23103836	     68.98285918	    120.49957885	     93.77701471
      2.96666670	     -1.15230365	      1.87676383	      4.33098739	     -0.15852674	      0.91356382	      0.12562559	      4.67551621	     -6.18014345	     -4.30089292	      3.22614262	      0.05630681	      3.38788819	     -7.15354467	     -7.49999987	      4.44769550	     -5.43960084	      0.09106051	      1.87122845	      0.03265910	      5.25808428	     -0.15280894	     -7.49999987	      3.00104640	      1.11156308	      8.37003206	     68.31730892	     15.19550953	     62.82804658	    148.36194351	    107.40396844	     84.09648926	     19.92063929	     68.97215567	    121.22674515	     95.45145029
      2.98333330	     -1.23462498	      1.87180084	      4.36648063	     -0.16137281	      0.91218602	      0.12539379	      4.74900384	     -6.16424169	     -4.33997756	      3.08149980	      0.05378232	      3.40096341	     -7.09397986	     -7.49999987	      4.55217272	     -5.44154854	     -0.01656865	      1.83186064	      0.03197200	      5.15186612	     -0.03091103	     -7.49999987	      2.80441636	      1.03702070	      8.15041067	     68.49320301	     15.38360311	     63.70931743	    148.25765144	    107.97393853	     83.87880141	     19.42486490	     69.12717727	    121.58973867	     92.41266622
      3.00000000	     -1.31664959	      1.87122645	      4.38213189	     -0.16131778	      0.91275328	      0.12570705	      4.82169899	     -6.14168490	     -4.37679739	      2.90460279	      0.05069488	      3.30668389	     -6.91529960	     -7.49999987	      4.59308572	     -5.44891777	     -0.11167033	      1.69768370	      0.02963017	      5.07271771	      0.21306854	     -7.49999987	      2.74564433	      0.98430301	      8.04042668	     68.39679899	     15.35551776	     64.72244603	    148.31220385	    108.19072937	     83.42703938	     18.91863913	     69.24495138	    121.44164411	     93.15464311
      3.01666670	     -1.42033890	      1.85052007	      4.36254959	     -0.16170890	      0.91235885	      0.12591630	      4.95570361	     -6.11425967	     -4.67508358	      2.80491589	      0.04895502	      3.30185485	     -6.57237421	     -7.49999987	      4.70147151	     -5.45630415	     -0.29475231	      1.64770787	      0.02875793	      5.03972179	      0.42739337	     -7.49999987	      2.14435704	      0.72271380	      7.94792949	     68.44995269	     14.70800018	     64.44302059	    147.49154597	    107.49022170	     84.15255051	     18.68391871	     69.55933537	    121.13711134	     89.79824280
      3.03333330	     -1.62102230	      1.78967012	      4.34033393	     -0.16207117	      0.90678763	      0.12510680	      5.25273383	     -6.07302607	     -4.60318798	      2.81698108	      0.04916559	      3.13815835	     -6.92309143	     -7.49999987	      4.95602572	     -5.50009651	     -0.40040183	      1.64353417	      0.02868508	      5.25945958	      0.48543685	     -7.49999987	      2.10764649	      0.75462454	      7.72532264	     68.57594078	     15.25492586	     64.58421875	    147.40475072	    107.44537232	     84.55976386	     18.37262783	     69.26156497	    120.52124471	     90.98996177
      3.05000000	     -1.77826795	      1.77082689	      4.28527676	     -0.16427861	      0.90984805	      0.12479537	      5.52943449	     -6.09546961	     -4.76100738	      2.86512333	      0.05000584	      3.08417043	     -6.80972338	     -7.49999987	      5.19689652	     -5.48686235	     -0.56663688	      1.68643028	      0.02943376	      5.29654554	      0.65756747	     -7.49999987	      1.80192446	      0.73789854	      7.23642617	     68.64086353	     15.53301116	     64.28378659	    147.07481039	    106.77832801	     84.86806618	     17.63436491	     69.30578527	    119.30519487	     89.29893170
      3.06666670	     -1.94161179	      1.77384183	      4.40161731	     -0.16120968	      0.91084016	      0.12352830	      5.55066872	     -6.17591333	     -4.77792170	      2.73216862	      0.04768534	      3.20924842	     -6.77047940	     -7.49999987	      5.32629952	     -5.43247998	     -0.54864457	      1.66381731	      0.02903909	      5.25849210	      0.62933185	     -7.49999987	      1.32118939	      0.60601133	      7.84042673	     67.37031265	     12.58034742	     61.15762865	    143.13727005	    105.37852598	     85.24422194	     18.37848929	     69.57326665	    118.99138543	     84.98306125
      3.08333330	     -2.11133062	      1.80758357	      4.39507689	     -0.16287559	      0.90998339	      0.12395808	      5.70706037	     -6.27493220	     -4.91980150	      2.70968265	      0.04729288	      3.41192106	     -6.53062873	     -7.49999987	      5.51280791	     -5.35393401	     -0.57170802	      1.69865366	      0.02964710	      5.30250624	      0.60299197	     -7.49999987	      0.91507557	      0.59464267	      8.27177113	     66.02613037	     10.18266133	     57.65430595	    138.69229995	    102.78056170	     85.50977956	     18.75725835	     70.08862924	    118.87976607	     81.56128432
      3.10000000	     -2.15409109	      1.83913415	      4.37302820	     -0.16228669	      0.91219114	      0.12337288	      5.66478617	     -6.34817753	     -5.01198388	      2.62854716	      0.04587680	      3.57580728	     -6.20004372	     -7.49999987	      5.55264585	     -5.30187445	     -0.73078610	      1.67036871	      0.02915343	      5.15226566	      0.71798595	     -7.49999987	      0.47814486	      0.56239416	      8.58619643	     65.85682340	      9.21483783	     56.32281932	    136.22603810	    102.05176163	     85.80188433	     19.37667558	     70.70192948	    119.55705184	     79.86560334
      3.11666670	     -2.29580133	      1.86080901	      4.52681506	     -0.16342764	      0.91227889	      0.12326010	      5.73182339	     -6.42612335	     -5.18863900	      2.56158366	      0.04470807	      3.58987527	     -6.05862656	     -7.49999987	      5.70044269	     -5.22503467	     -0.71981746	      1.67849027	      0.02929518	      4.97626982	      0.61270033	     -7.49999987	      0.31256417	      0.53984288	      8.60741929	     65.03788607	      8.47410764	     54.06219128	    133.13707555	    100.85267028	     85.78828053	     19.65092593	     70.96546088	    119.92496714	     78.20192163
      3.13333330	     -2.39013463	      1.85171019	      4.50470458	     -0.16593225	      0.90828617	      0.12379937	      5.94586939	     -6.45334055	     -5.25322123	      2.64432288	      0.04615214	      3.57807969	     -6.00873201	     -7.49999987	      5.92908472	     -5.21487662	     -0.92182912	      1.83948590	      0.03210509	      4.99795273	      0.58184346	     -7.49999987	      0.36350035	      0.49261872	      8.72366610	     65.31194639	      9.79346470	     55.00399006	    136.62254829	    101.34279835	     86.13200097	     20.24737411	     71.18835406	    119.71129711	     81.38886741
      3.15000000	     -2.45408003	      1.81707722	      4.50048601	     -0.16728836	      0.90899779	      0.12330180	      6.16046130	     -6.43494333	     -5.32881380	      2.67658295	      0.04671519	      3.39310915	     -6.03021159	     -7.49999987	      6.18594531	     -5.21347503	     -0.82772621	      1.91429813	      0.03341081	      4.94387374	      0.29900768	     -7.49999987	      0.27009080	      0.52124290	      8.35037937	     65.28740090	     11.04903006	     54.83855070	    138.35519547	     92.58864251	     85.96938664	     19.64497002	     71.12327092	    119.37180830	     74.43010858
      3.16666670	     -2.68843533	      1.77453662	      4.43927834	     -0.16819118	      0.90883243	      0.12293924	      6.58571240	     -6.43959448	     -5.37788607	      2.80881227	      0.04902302	      3.38425355	     -5.91096659	     -7.49999987	      6.62452750	     -5.23274290	     -0.95280504	      2.10091949	      0.03666796	      4.97017962	      0.16591433	     -7.49999987	      0.31341437	      0.63197635	      7.99854049	     64.80429208	     11.95804568	     52.79597080	    139.33216111	    100.52566370	     85.69261712	     18.90518021	     70.09805349	    118.44478177	     82.27398520
      3.18333330	     -2.82367988	      1.76378112	      4.45110073	     -0.16660037	      0.90740256	      0.12208931	      6.80615106	     -6.48633761	     -5.48985477	      2.90833704	      0.05076006	      3.46609094	     -5.80406615	     -7.49999987	      6.94187511	     -5.19931265	     -0.97026786	      2.23531003	      0.03901352	      4.98320405	     -0.13886047	     -7.49999987	      0.34317856	      0.65878865	      7.65128561	     65.09107333	     12.59816677	     53.58434708	    140.43928616	     95.15363348	     85.49350628	     18.37650388	     70.01938148	    118.36438506	     78.18244120
      3.20000000	     -3.00158815	      1.77901374	      4.23242273	     -0.17028925	      0.90804813	      0.12205286	      7.15093300	     -6.53493604	     -5.31824189	      2.95973157	      0.05165706	      3.41703809	     -6.00845326	     -7.49999987	      7.28817289	     -5.17416368	     -1.11049719	      2.28590500	      0.03989657	      4.94397255	     -0.47973589	     -7.49999987	      0.46486638	      0.68540439	      7.51114093	     65.64736827	     13.64256064	     54.17683647	    141.50832802	    101.29354250	     84.99579832	     17.80614378	     69.49386795	    118.09519479	     82.55634766
